# xmcd
#
# Track frame offsets:
#	150
#	23183
#	43801
#	65966
#	85124
#	106423
#	127961
#	159885
#	183552
#	202702
#	227458
#
# Disc length: 3322 seconds
#
# Revision: 0
# Processed by: cddbd v1.5.2PL0 Copyright (c) Steve Scherf et al.
# Submitted via: EasyCDDAExtractor 16.0.9.1
#
DISCID=870cf80b
DTITLE=Various Artist - Mùa Xuân Hoa Đào
DYEAR=2014
DGENRE=Pop
TTITLE0=Mai Thiên Vân - Mùa Xuân Hoa Đào
TTITLE1=Hương Thủy - Cánh Thiệp Đầu Xuân
TTITLE2=Quang Lê - Mùa Xuân Của Mẹ
TTITLE3=Minh Tuyết - Hỏi Nàng Xuân
TTITLE4=Bảo Khánh - Mỗi Mùa Xuân Về Lại Thêm Một Lần Dối Mẹ
TTITLE5=Duy Trường and Hạ Vy - Mùa Xuân Xôn Xao
TTITLE6=Manh Quỳnh, Khánh Lâm and Tuấn Vũ - Liên Khúc: Mùa Xuân Trên Cao, Mùa Xu
TTITLE6=ân Đó Có Em and Cám Ơn
TTITLE7=Quang Lê and Mai Thiên Vân - Ai Lên Xứ Hoa Đào
TTITLE8=Quang Hiếu - Mùa Xuân Bên Nhau
TTITLE9=Mai Thiên Vân - Hoa Đào Năm Trước
TTITLE10=Duy Trường - Đón Xuân Này Nhớ Xuân Xưa
EXTD=
EXTT0=
EXTT1=
EXTT2=
EXTT3=
EXTT4=
EXTT5=
EXTT6=
EXTT7=
EXTT8=
EXTT9=
EXTT10=
PLAYORDER=
